<svg width="23" height="23" viewBox="0 0 23 23" fill="none" xmlns="http://www.w3.org/2000/svg">
<path d="M10.2067 2.35571H8.35095C3.71167 2.35571 1.85596 4.21142 1.85596 8.8507V14.4178C1.85596 19.0571 3.71167 20.9128 8.35095 20.9128H13.9181C18.5574 20.9128 20.4131 19.0571 20.4131 14.4178V12.5621" stroke="#23213D" stroke-width="1.56159" stroke-linecap="round" stroke-linejoin="round"/>
<path d="M14.8829 3.30208L7.57142 10.6136C7.29307 10.8919 7.01471 11.4394 6.95904 11.8384L6.56006 14.6312C6.4116 15.6426 7.12605 16.3477 8.13742 16.2086L10.9303 15.8096C11.32 15.7539 11.8674 15.4755 12.155 15.1972L19.4665 7.88569C20.7284 6.6238 21.3222 5.15779 19.4665 3.30208C17.6108 1.44636 16.1448 2.04019 14.8829 3.30208Z" stroke="#23213D" stroke-width="1.56159" stroke-miterlimit="10" stroke-linecap="round" stroke-linejoin="round"/>
<path d="M13.8345 4.35059C14.4561 6.56816 16.1912 8.30325 18.4181 8.93419" stroke="#23213D" stroke-width="1.56159" stroke-miterlimit="10" stroke-linecap="round" stroke-linejoin="round"/>
</svg>
